HIERARCHY
ROOT Hips
{
	OFFSET 0.000000 0.000000 0.000000
	CHANNELS 6 Xposition Yposition Zposition Zrotation Yrotation Xrotation 
	JOINT LHipJoint
	{
		OFFSET 0.000000 0.000000 0.000000
		CHANNELS 3 Zrotation Yrotation Xrotation
		JOINT LeftUpLeg
		{
			OFFSET 1.363060 -1.794630 0.839290
			CHANNELS 3 Zrotation Yrotation Xrotation
			JOINT LeftLeg
			{
				OFFSET 2.448110 -6.726130 0.000000
				CHANNELS 3 Zrotation Yrotation Xrotation
				JOINT LeftFoot
				{
					OFFSET 2.562200 -7.039590 0.000000
					CHANNELS 3 Zrotation Yrotation Xrotation
					JOINT LeftToeBase
					{
						OFFSET 0.157640 -0.433110 2.322550
						CHANNELS 3 Zrotation Yrotation Xrotation
						End Site
						{
							OFFSET 0.000000 0.000000 0.000000
						}
					}
				}
			}
		}
	}
	JOINT RHipJoint
	{
		OFFSET 0.000000 0.000000 0.000000
		CHANNELS 3 Zrotation Yrotation Xrotation
		JOINT RightUpLeg
		{
			OFFSET -1.305520 -1.794630 0.839290
			CHANNELS 3 Zrotation Yrotation Xrotation
			JOINT RightLeg
			{
				OFFSET -2.542530 -6.985550 0.000000
				CHANNELS 3 Zrotation Yrotation Xrotation
				JOINT RightFoot
				{
					OFFSET -2.568260 -7.056230 0.000000
					CHANNELS 3 Zrotation Yrotation Xrotation
					JOINT RightToeBase
					{
						OFFSET -0.164730 -0.452590 2.363150
						CHANNELS 3 Zrotation Yrotation Xrotation
						End Site
						{
							OFFSET 0.000000 0.000000 0.000000
						}
					}
				}
			}
		}
	}
	JOINT LowerBack
	{
		OFFSET 0.000000 0.000000 0.000000
		CHANNELS 3 Zrotation Yrotation Xrotation
		JOINT Spine
		{
			OFFSET 0.028270 2.035590 -0.193380
			CHANNELS 3 Zrotation Yrotation Xrotation
			JOINT Spine1
			{
				OFFSET 0.056720 2.048850 -0.042750
				CHANNELS 3 Zrotation Yrotation Xrotation
				JOINT Neck
				{
					OFFSET 0.000000 0.000000 0.000000
					CHANNELS 3 Zrotation Yrotation Xrotation
					JOINT Neck1
					{
						OFFSET -0.054170 1.746240 0.172020
						CHANNELS 3 Zrotation Yrotation Xrotation
						JOINT Head
						{
							OFFSET 0.104070 1.761360 -0.123970
							CHANNELS 3 Zrotation Yrotation Xrotation
							End Site
							{
								OFFSET 0.000000 0.000000 0.000000
							}
						}
					}
				}
				JOINT LeftShoulder
				{
					OFFSET 0.000000 0.000000 0.000000
					CHANNELS 3 Zrotation Yrotation Xrotation
					JOINT LeftArm
					{
						OFFSET 3.362410 1.200890 -0.311210
						CHANNELS 3 Zrotation Yrotation Xrotation
						JOINT LeftForeArm
						{
							OFFSET 4.983000 -0.000000 -0.000000
							CHANNELS 3 Zrotation Yrotation Xrotation
							JOINT LeftHand
							{
								OFFSET 3.483560 -0.000000 -0.000000
								CHANNELS 3 Zrotation Yrotation Xrotation
								JOINT LeftFingerBase
								{
									OFFSET 0.000000 0.000000 0.000000
									CHANNELS 3 Zrotation Yrotation Xrotation
									JOINT LeftHandIndex1
									{
										OFFSET 0.715260 -0.000000 -0.000000
										CHANNELS 3 Zrotation Yrotation Xrotation
										End Site
										{
											OFFSET 0.000000 0.000000 0.000000
										}
									}
								}
								JOINT LThumb
								{
									OFFSET 0.000000 0.000000 0.000000
									CHANNELS 3 Zrotation Yrotation Xrotation
									End Site
									{
										OFFSET 0.000000 0.000000 0.000000
									}
								}
							}
						}
					}
				}
				JOINT RightShoulder
				{
					OFFSET 0.000000 0.000000 0.000000
					CHANNELS 3 Zrotation Yrotation Xrotation
					JOINT RightArm
					{
						OFFSET -3.136600 1.374050 -0.404650
						CHANNELS 3 Zrotation Yrotation Xrotation
						JOINT RightForeArm
						{
							OFFSET -5.241900 -0.000000 -0.000000
							CHANNELS 3 Zrotation Yrotation Xrotation
							JOINT RightHand
							{
								OFFSET -3.444170 -0.000000 -0.000000
								CHANNELS 3 Zrotation Yrotation Xrotation
								JOINT RightFingerBase
								{
									OFFSET 0.000000 0.000000 0.000000
									CHANNELS 3 Zrotation Yrotation Xrotation
									JOINT RightHandIndex1
									{
										OFFSET -0.622530 -0.000000 -0.000000
										CHANNELS 3 Zrotation Yrotation Xrotation
										End Site
										{
											OFFSET 0.000000 0.000000 0.000000
										}
									}
								}
								JOINT RThumb
								{
									OFFSET 0.000000 0.000000 0.000000
									CHANNELS 3 Zrotation Yrotation Xrotation
									End Site
									{
										OFFSET 0.000000 0.000000 0.000000
									}
								}
							}
						}
					}
				}
			}
		}
	}
}
MOTION
Frames: 5
Frame Time: 0.008333
5.305494 17.349891 1.155149 -177.816217 -55.415553 -171.716880 -12.054969 3.195806 -2.713445 -9.290032 35.588628 -14.942463 -3.481743 -0.818481 0.914432 1.656618 12.278357 -3.037981 0.903600 -0.000000 -24.333800 8.401820 -1.316041 5.996549 3.003664 13.605459 -14.997552 3.588085 1.552220 -1.140693 1.903132 12.225451 6.706629 2.231000 0.000000 -42.361801 3.262456 -4.978274 -4.901284 0.610297 -5.316853 -4.311412 -5.469778 -5.430353 -2.821200 6.695493 -2.535492 2.117589 -1.246549 -0.239360 2.717152 0.000000 0.000000 0.000000 3.187559 -5.619724 4.144317 -45.034764 -26.406678 -14.154153 -1.794287 -32.026682 -0.033808 4.449362 7.494085 0.286630 -0.095672 0.290911 -0.000000 0.000000 0.000000 0.000000 0.000000 0.000000 0.000000 -2.759874 -3.818292 -8.887912 79.960872 60.009625 2.386154 -174.429596 59.824658 179.585758 -22.995889 21.860831 -4.809063 0.119000 -1.266096 0.000000 0.000000 0.000000 0.000000 0.000000 0.000000 0.000000 
5.307977 17.350398 1.152183 -177.852447 -55.294051 -171.633581 -12.035528 3.162567 -2.745183 -9.354765 35.640414 -15.049436 -3.481976 -0.819192 1.052357 1.676536 12.420468 -3.087018 0.905900 -0.000000 -24.280500 8.405996 -1.330500 6.019475 2.971678 13.663792 -15.122342 3.582629 1.533645 -1.100762 1.912379 12.361372 6.735244 2.272800 0.000000 -42.340100 3.194987 -4.836816 -4.890676 0.597873 -5.174015 -4.320470 -5.442889 -5.287229 -2.852770 6.433927 -2.493529 2.140082 -1.261356 -0.240135 2.723764 0.000000 0.000000 0.000000 2.820695 -5.076123 3.960534 -46.654994 -25.694415 -13.485468 -1.657217 -35.072797 -0.036278 4.892648 8.089481 0.340448 -0.092031 0.289041 -0.000000 0.000000 0.000000 0.000000 0.000000 0.000000 0.000000 -3.061297 -3.675646 -8.872597 79.857870 59.807605 2.107942 -174.421408 59.816449 179.585077 -23.022813 21.780425 -4.797774 0.119839 -1.266229 0.000000 0.000000 0.000000 0.000000 0.000000 0.000000 0.000000 
5.310431 17.351153 1.149257 -177.870770 -55.211847 -171.570493 -12.016755 3.129277 -2.774058 -9.402264 35.675434 -15.133082 -3.479916 -0.821610 1.155737 1.693549 12.544766 -3.117130 0.910901 0.000000 -24.228300 8.410835 -1.344719 6.038527 2.950274 13.715454 -15.218760 3.577365 1.517706 -1.087008 1.918854 12.464545 6.770368 2.307801 0.000000 -42.295300 3.122490 -4.699010 -4.878510 0.583370 -5.033714 -4.333280 -5.416139 -5.146597 -2.906897 6.183486 -2.444147 2.187357 -1.280673 -0.241580 2.737311 0.000000 0.000000 0.000000 2.524224 -4.615371 3.751375 -48.149603 -24.925135 -12.957672 -1.490405 -38.269168 -0.039973 5.564975 8.530475 0.407961 -0.089510 0.289845 -0.000000 0.000000 0.000000 0.000000 0.000000 0.000000 0.000000 -3.319808 -3.534689 -8.850209 79.735542 59.629345 1.841266 -174.425174 59.846721 179.584870 -23.008694 21.715571 -4.780878 0.119577 -1.266295 0.000000 0.000000 0.000000 0.000000 0.000000 0.000000 0.000000 
5.313007 17.352001 1.146542 -177.870598 -55.177951 -171.531541 -11.998540 3.095638 -2.799949 -9.426778 35.683644 -15.188052 -3.474622 -0.824939 1.231275 1.708154 12.652656 -3.134217 0.917600 0.000000 -24.179600 8.416690 -1.357550 6.050652 2.940559 13.757439 -15.276455 3.572059 1.504907 -1.103520 1.921804 12.527492 6.809766 2.333700 0.000000 -42.230200 3.045962 -4.567619 -4.860214 0.567461 -4.898520 -4.348354 -5.388611 -5.010958 -2.981309 5.945601 -2.389705 2.256471 -1.304087 -0.243611 2.756890 0.000000 0.000000 0.000000 2.287146 -4.220103 3.517703 -49.518011 -24.152189 -12.582192 -1.302425 -41.594011 -0.044616 6.405404 8.739140 0.480175 -0.087598 0.294117 -0.000000 0.000000 0.000000 0.000000 0.000000 0.000000 0.000000 -3.538011 -3.400004 -8.820403 79.591535 59.475793 1.584147 -174.440278 59.912347 179.585096 -22.959917 21.664305 -4.759378 0.118427 -1.266281 0.000000 0.000000 0.000000 0.000000 0.000000 0.000000 0.000000 
5.315968 17.352803 1.144179 -177.853960 -55.199379 -171.519561 -11.980596 3.061514 -2.822393 -9.424723 35.655899 -15.210945 -3.465261 -0.828446 1.285348 1.720908 12.746179 -3.143181 0.925099 -0.000000 -24.136500 8.424058 -1.367915 6.053085 2.943550 13.785291 -15.289235 3.566445 1.495323 -1.150052 1.920764 12.546089 6.850556 2.349100 -0.000000 -42.146400 2.965205 -4.445301 -4.832562 0.550664 -4.770835 -4.364978 -5.358690 -4.882702 -3.075626 5.722124 -2.331079 2.346397 -1.331228 -0.246185 2.782179 0.000000 0.000000 0.000000 2.110559 -3.891047 3.261305 -50.776671 -23.397353 -12.373586 -1.103527 -45.035804 -0.049885 7.327137 8.675991 0.543694 -0.085729 0.302292 -0.000000 0.000000 0.000000 0.000000 0.000000 0.000000 0.000000 -3.717916 -3.273507 -8.781739 79.420289 59.346180 1.331417 -174.466054 60.010551 179.585700 -22.883545 21.624569 -4.734371 0.116619 -1.266171 0.000000 0.000000 0.000000 0.000000 0.000000 0.000000 0.000000 
